Coordinates
version=1
nRows=20
nColumns=63
inDegrees=yes

Units are S.I. units (second, meters, Newtons, ...)
If the header above contains a line with 'inDegrees', this indicates whether rotational values are in degrees (yes) or radians (no).

endheader
time	pelvis_tilt	pelvis_list	pelvis_rotation	pelvis_tx	pelvis_ty	pelvis_tz	hip_flexion_r	hip_adduction_r	hip_rotation_r	knee_angle_r	knee_angle_r_beta	ankle_angle_r	subtalar_angle_r	mtp_angle_r	hip_flexion_l	hip_adduction_l	hip_rotation_l	knee_angle_l	knee_angle_l_beta	ankle_angle_l	subtalar_angle_l	mtp_angle_l	L5_S1_Flex_Ext	L5_S1_Lat_Bending	L5_S1_axial_rotation	L4_L5_Flex_Ext	L4_L5_Lat_Bending	L4_L5_axial_rotation	L3_L4_Flex_Ext	L3_L4_Lat_Bending	L3_L4_axial_rotation	L2_L3_Flex_Ext	L2_L3_Lat_Bending	L2_L3_axial_rotation	L1_L2_Flex_Ext	L1_L2_Lat_Bending	L1_L2_axial_rotation	L1_T12_Flex_Ext	L1_T12_Lat_Bending	L1_T12_axial_rotation	Abs_r3	Abs_r2	Abs_r1	Abs_t1	Abs_t2	neck_flexion	neck_bending	neck_rotation	arm_flex_r	arm_add_r	arm_rot_r	elbow_flex_r	pro_sup_r	wrist_flex_r	wrist_dev_r	arm_flex_l	arm_add_l	arm_rot_l	elbow_flex_l	pro_sup_l	wrist_flex_l	wrist_dev_l
0.000000	1.037188	-2.483098	102.414171	0.145283	0.989202	0.454286	3.462824	-0.030654	-18.137184	9.792633	0.170914	33.639950	13.442134	0.000000	2.786889	-0.580283	4.403080	2.171648	0.037902	32.381002	10.103090	0.000000	0.156776	0.404709	-2.016812	0.291148	0.538262	-2.142863	0.257567	0.984009	-2.142863	0.179179	0.984009	-1.764711	0.145582	0.825282	-1.638660	0.089582	0.626894	-1.512609	1.119832	4.578145	-11.216906	0.000000	0.000000	27.441310	3.406158	9.633134	15.605064	-7.536550	83.145682	20.913528	34.347296	-3.137210	-4.142833	18.702957	1.485410	152.937969	6.602104	6.870161	0.379923	-1.591184
0.016949	1.125465	-2.800612	101.150260	0.148331	0.988388	0.456592	3.697859	0.265845	-18.225223	9.133393	0.159408	33.399145	15.534174	0.000000	3.079520	-0.755332	7.432361	1.975250	0.034475	31.063534	5.441276	0.000000	0.171356	0.409894	-1.804650	0.318226	0.545159	-1.917441	0.281521	0.996617	-1.917441	0.195843	0.996617	-1.579069	0.159121	0.835856	-1.466279	0.097913	0.634926	-1.353488	1.223981	4.636806	-10.036925	0.000000	0.000000	27.488024	3.446230	9.864899	16.413166	-7.268137	95.143737	17.969707	26.354102	-3.608770	-4.930959	18.096306	-0.270099	140.772499	9.305055	8.520148	-3.146622	-2.589279
0.033898	1.182693	-3.061943	100.089359	0.151028	0.987766	0.458331	3.811586	0.525617	-17.790597	8.441781	0.147337	33.066163	16.648763	0.000000	3.306241	-0.899095	9.822105	1.806493	0.031529	29.997785	1.685784	0.000000	0.184415	0.409672	-1.626170	0.342477	0.544864	-1.727805	0.302976	0.996077	-1.727805	0.210768	0.996077	-1.422898	0.171248	0.835404	-1.321263	0.105375	0.634582	-1.219627	1.317258	4.634295	-9.044268	0.000000	0.000000	27.531923	3.466553	9.962393	16.901950	-7.141969	104.560641	15.609927	19.814614	-3.924124	-5.409722	17.546800	-1.806584	131.147051	11.539611	9.728539	-5.726578	-3.396018
0.050847	1.212671	-3.271220	99.215581	0.153392	0.987318	0.459553	3.817278	0.751523	-16.900095	7.727192	0.134865	32.654384	16.895398	0.000000	3.472268	-1.014676	11.630812	1.663531	0.029034	29.161293	-1.243105	0.000000	0.195928	0.404797	-1.478779	0.363858	0.538381	-1.571202	0.321890	0.984224	-1.571202	0.223926	0.984224	-1.293931	0.181939	0.825463	-1.201508	0.111953	0.627031	-1.109084	1.399495	4.579149	-8.224523	0.000000	0.000000	27.572362	3.469715	9.944494	17.106661	-7.140710	111.641800	13.781450	14.602138	-4.100958	-5.617872	17.050833	-3.138529	123.812100	13.346837	10.543370	-7.455767	-4.029301
0.067797	1.219198	-3.432568	98.513039	0.155442	0.987025	0.460309	3.728208	0.946422	-15.620506	6.999019	0.122156	32.177187	16.383575	0.000000	3.582820	-1.105182	12.916982	1.544523	0.026957	28.531599	-3.425109	0.000000	0.205872	0.396024	-1.359886	0.382324	0.526712	-1.444879	0.338226	0.962893	-1.444879	0.235291	0.962893	-1.189901	0.191172	0.807572	-1.104908	0.117635	0.613441	-1.019915	1.470520	4.479902	-7.563280	0.000000	0.000000	27.608701	3.458305	9.830077	17.062541	-7.247025	116.632619	12.431538	10.589984	-4.156958	-5.594164	16.604803	-4.280419	118.518119	14.767796	11.012675	-8.430012	-4.507025
0.084746	1.206075	-3.550117	97.965844	0.157195	0.986870	0.460651	3.557648	1.113173	-14.018618	6.266658	0.109374	31.647955	15.222788	0.000000	3.643111	-1.173720	13.739113	1.447623	0.025266	28.086241	-4.939948	0.000000	0.214221	0.384106	-1.266902	0.397831	0.510862	-1.346083	0.351944	0.933917	-1.346083	0.244834	0.933917	-1.108539	0.198926	0.783270	-1.029358	0.122406	0.594981	-0.950176	1.530162	4.345089	-7.046127	0.000000	0.000000	27.640297	3.434909	9.638020	16.804835	-7.443577	119.778504	11.507456	7.651461	-4.109809	-5.377349	16.205104	-5.246738	115.015584	15.843550	11.184490	-8.745134	-4.847091
0.101695	1.177101	-3.627992	97.558111	0.158669	0.986834	0.460630	3.318872	1.254636	-12.161222	5.539502	0.096683	31.080067	13.522535	0.000000	3.658361	-1.223395	14.155706	1.370987	0.023928	27.802759	-5.867339	0.000000	0.220954	0.369799	-1.197233	0.410334	0.491833	-1.272060	0.363005	0.899130	-1.272060	0.252528	0.899130	-1.047579	0.205178	0.754095	-0.972752	0.126253	0.572819	-0.897925	1.578252	4.183245	-6.658651	0.000000	0.000000	27.666509	3.402115	9.387198	16.368787	-7.713033	121.324861	10.956465	5.659876	-3.977195	-5.006181	15.848131	-6.051971	113.054968	16.615163	11.106850	-8.496955	-5.067398
0.118644	1.136074	-3.670321	97.273951	0.159882	0.986898	0.460297	3.025154	1.373670	-10.115106	4.826946	0.084246	30.486904	11.392311	0.000000	3.633786	-1.257313	14.225259	1.312773	0.022912	27.658693	-6.287000	0.000000	0.226045	0.353857	-1.148290	0.419789	0.470630	-1.220058	0.371370	0.860369	-1.220058	0.258347	0.860369	-1.004753	0.209906	0.721586	-0.932985	0.129162	0.548125	-0.861217	1.614619	4.002905	-6.386442	0.000000	0.000000	27.686694	3.362511	9.096488	15.789640	-8.038055	121.517096	10.725828	4.488538	-3.776802	-4.519412	15.530279	-6.710601	112.386746	17.123699	10.827791	-7.781297	-5.185845
0.135593	1.086795	-3.681232	97.097478	0.160852	0.987045	0.459703	2.689765	1.473135	-7.947060	4.138385	0.072228	29.881847	8.941612	0.000000	3.574602	-1.278581	14.006272	1.271136	0.022185	27.631581	-6.278651	0.000000	0.229472	0.337035	-1.117480	0.426152	0.448256	-1.187322	0.376999	0.819466	-1.187322	0.262263	0.819466	-0.977795	0.213087	0.687281	-0.907952	0.131120	0.522067	-0.838110	1.639093	3.812604	-6.215087	0.000000	0.000000	27.700210	3.318685	8.784767	15.102638	-8.401308	120.600615	10.762808	4.010756	-3.526315	-3.955794	15.247945	-7.237114	112.761391	17.410220	10.395348	-6.693983	-5.220331
0.152542	1.033062	-3.664852	97.012804	0.161596	0.987256	0.458900	2.325980	1.555892	-5.723872	3.483213	0.060794	29.278276	6.279934	0.000000	3.486027	-1.290304	13.557245	1.244231	0.021716	27.698963	-5.922010	0.000000	0.231209	0.320086	-1.102212	0.429378	0.425714	-1.171101	0.379853	0.778257	-1.171101	0.264249	0.778257	-0.964436	0.214701	0.652719	-0.895548	0.132113	0.495813	-0.826659	1.651502	3.620877	-6.130175	0.000000	0.000000	27.706416	3.273224	8.470911	14.343026	-8.785458	118.820822	11.014668	4.099838	-3.243420	-3.354081	14.997524	-7.645994	113.929378	17.515791	9.857556	-5.330834	-5.188755
0.169492	0.978676	-3.625307	97.004042	0.162133	0.987513	0.457939	1.947071	1.624798	-3.512331	2.870824	0.050105	28.689571	3.516772	0.000000	3.373278	-1.295589	12.936676	1.230216	0.021471	27.838378	-5.296794	0.000000	0.231233	0.303766	-1.099897	0.429423	0.404008	-1.168640	0.379893	0.738576	-1.168640	0.264277	0.738576	-0.962409	0.214723	0.619439	-0.893666	0.132127	0.470533	-0.824922	1.651677	3.436258	-6.117295	0.000000	0.000000	27.704668	3.228717	8.173796	13.546047	-9.173169	116.423124	11.428670	4.629093	-2.945802	-2.753025	14.775410	-7.951724	115.641180	17.481474	9.262452	-3.787672	-5.109017
0.186441	0.975204	-3.577145	97.042570	0.162334	0.987758	0.456877	1.610945	1.712378	-1.803489	2.368401	0.041336	28.216617	1.314093	0.000000	3.245936	-1.337102	12.436449	1.201942	0.020978	27.998872	-4.723033	0.000000	0.230091	0.299970	-1.104833	0.427302	0.398960	-1.173886	0.378017	0.729348	-1.173886	0.262971	0.729348	-0.966729	0.213663	0.611699	-0.897677	0.131474	0.464654	-0.828625	1.643517	3.393324	-6.144752	0.000000	0.000000	27.695365	3.133486	8.130406	12.763209	-9.512607	114.590929	11.799849	4.769866	-2.592046	-2.262923	14.519158	-8.021518	118.975155	17.003566	8.876422	-2.558940	-5.314205
0.203390	0.975983	-3.496682	97.128980	0.162385	0.988006	0.455790	1.273229	1.794411	-0.167137	1.930833	0.033699	27.765584	-0.847220	0.000000	3.093494	-1.379225	11.767638	1.210724	0.021131	28.174378	-3.938228	0.000000	0.224955	0.295572	-1.118021	0.417763	0.393111	-1.187897	0.369578	0.718654	-1.187897	0.257101	0.718654	-0.978268	0.208893	0.602731	-0.908392	0.128539	0.457841	-0.838515	1.606828	3.343573	-6.218095	0.000000	0.000000	27.666033	3.084039	8.046958	12.049473	-9.866334	111.962089	12.360500	5.810041	-2.422230	-1.868882	14.375264	-8.134408	119.970084	16.963963	8.386163	-1.189843	-5.269576
0.220339	0.970347	-3.398643	97.234429	0.162358	0.988228	0.454716	0.949887	1.862593	1.384498	1.552892	0.027103	27.344920	-2.922414	0.000000	2.923002	-1.408814	11.128360	1.235091	0.021556	28.316015	-3.208179	0.000000	0.217231	0.290098	-1.137515	0.403419	0.385830	-1.208610	0.356888	0.705344	-1.208610	0.248273	0.705344	-0.995326	0.201721	0.591567	-0.924231	0.124126	0.449361	-0.853136	1.551658	3.281644	-6.326517	0.000000	0.000000	27.619371	3.089251	7.997535	11.430796	-10.215248	108.688837	13.058514	7.708079	-2.473854	-1.578666	14.208271	-8.322097	119.759256	17.136161	8.233924	0.010739	-5.034597
0.237288	0.944633	-3.292565	97.364243	0.162298	0.988454	0.453712	0.646770	1.904613	2.798326	1.227039	0.021416	26.952976	-4.861136	0.000000	2.746726	-1.414198	10.546429	1.264348	0.022067	28.425945	-2.504529	0.000000	0.207331	0.281848	-1.163523	0.385034	0.374857	-1.236243	0.340623	0.685284	-1.236243	0.236958	0.685284	-1.018083	0.192527	0.574744	-0.945362	0.118469	0.436582	-0.872642	1.480941	3.188316	-6.471165	0.000000	0.000000	27.559932	3.135121	7.985803	11.050552	-10.256681	107.812093	13.257206	7.945887	-2.274926	-1.677548	14.051100	-8.497442	119.326195	17.310995	8.072397	1.100616	-4.801769
0.254237	0.916913	-3.192191	97.473276	0.162180	0.988645	0.452845	0.386453	1.930079	4.132974	0.955619	0.016679	26.566633	-6.711169	0.000000	2.581666	-1.407898	10.137017	1.287846	0.022477	28.482843	-2.009353	0.000000	0.196362	0.274726	-1.185540	0.364664	0.365385	-1.259636	0.322603	0.667968	-1.259636	0.224422	0.667968	-1.037348	0.182342	0.560220	-0.963251	0.112201	0.425550	-0.889155	1.402593	3.107751	-6.593619	0.000000	0.000000	27.494901	3.187856	8.029036	10.796459	-10.228019	107.445650	13.383345	7.994871	-2.132860	-1.912405	13.925791	-8.615044	118.906598	17.443192	7.873669	2.015846	-4.660383
0.271186	0.896750	-3.119764	97.567971	0.161999	0.988776	0.452151	0.192361	1.944877	5.221022	0.737770	0.012877	26.228846	-8.253218	0.000000	2.461108	-1.398207	9.812299	1.309101	0.022848	28.550571	-1.548987	0.000000	0.187711	0.270374	-1.205099	0.348598	0.359597	-1.280418	0.308390	0.657387	-1.280418	0.214535	0.657387	-1.054462	0.174308	0.551346	-0.979143	0.107258	0.418809	-0.903825	1.340800	3.058523	-6.702401	0.000000	0.000000	27.428436	3.240288	8.157592	10.636801	-10.147215	107.448679	13.448518	7.848327	-2.053115	-2.205521	13.814252	-8.682419	118.402691	17.523836	7.735734	2.734428	-4.620307
0.288136	0.884502	-3.064195	97.584567	0.161812	0.988859	0.451668	0.082790	1.948946	5.725047	0.628752	0.010974	26.088919	-8.930138	0.000000	2.362469	-1.389317	9.585448	1.313054	0.022917	28.605156	-1.223084	0.000000	0.178204	0.269786	-1.207978	0.330942	0.358816	-1.283476	0.292771	0.655958	-1.283476	0.203669	0.655958	-1.056980	0.165480	0.550148	-0.981482	0.101825	0.417899	-0.905983	1.272890	3.051875	-6.718409	0.000000	0.000000	27.373837	3.258795	8.340162	10.524209	-10.101125	107.000570	13.579245	8.082526	-2.133687	-2.534579	13.712603	-8.686817	117.787627	17.535945	7.857353	3.116138	-4.676044
0.305085	0.868113	-3.021753	97.587181	0.161553	0.988892	0.451400	0.031468	1.927957	6.068222	0.604799	0.010556	25.967313	-9.454715	0.000000	2.287103	-1.363505	9.749450	1.303466	0.022750	28.563219	-1.360349	0.000000	0.167614	0.271183	-1.210579	0.311276	0.360674	-1.286240	0.275373	0.659355	-1.286240	0.191566	0.659355	-1.059256	0.155647	0.552997	-0.983595	0.095775	0.420063	-0.907934	1.197252	3.067680	-6.732875	0.000000	0.000000	27.330878	3.294228	8.594467	10.502995	-10.052021	106.921054	13.696270	8.093632	-2.266797	-2.965479	13.650190	-8.637460	117.357831	17.491825	7.819280	3.267338	-4.820790
0.322034	0.861270	-3.030245	97.523075	0.161326	0.988834	0.451322	0.092064	1.893890	5.766496	0.687478	0.011999	26.026531	-9.065532	0.000000	2.276396	-1.340016	9.839424	1.295895	0.022618	28.562742	-1.407876	0.000000	0.163043	0.275956	-1.200752	0.302787	0.367021	-1.275799	0.267863	0.670959	-1.275799	0.186342	0.670959	-1.050658	0.151401	0.562729	-0.975611	0.093163	0.427455	-0.900564	1.164598	3.121666	-6.678223	0.000000	0.000000	27.302540	3.290349	8.909163	10.500283	-10.014509	106.691945	13.788273	8.199281	-2.460849	-3.333818	13.584783	-8.565045	116.760368	17.424118	8.194429	3.121314	-4.997683
